{"accessors":[{"bufferView":2,"componentType":5126,"count":875,"max":[23.30913734436035,146.5334930419922,31.24242401123047],"min":[-21.38998031616211,0,-12.601309776306152],"type":"VEC3"},{"bufferView":2,"byteOffset":10500,"componentType":5126,"count":875,"max":[0.9985669851303101,0.9093673825263977,0.9880266785621643],"min":[-0.9990611672401428,-0.8993464708328247,-0.9999780058860779],"type":"VEC3"},{"bufferView":3,"componentType":5126,"count":875,"max":[0.9999814033508301,0.5666412115097046,0.9980359673500061,1],"min":[-0.9999995231628418,-0.9992989301681519,-0.9980841875076294,1],"type":"VEC4"},{"bufferView":1,"componentType":5126,"count":875,"max":[0.9985389709472656,12.617351531982422],"min":[0.0004879999905824661,-0.9900000095367432],"type":"VEC2"},{"bufferView":0,"componentType":5125,"count":1836,"max":[874],"min":[0],"type":"SCALAR"},{"bufferView":2,"byteOffset":21000,"componentType":5126,"count":900,"max":[31.970792770385742,155.69137573242188,44.33921432495117],"min":[-34.65273666381836,91.91309356689453,-23.24321174621582],"type":"VEC3"},{"bufferView":2,"byteOffset":31800,"componentType":5126,"count":900,"max":[0.998146116733551,0.9998070001602173,0.9981784820556641],"min":[-0.9969877600669861,-0.9993467330932617,-0.9968463778495789],"type":"VEC3"},{"bufferView":3,"byteOffset":14000,"componentType":5126,"count":900,"max":[0.9993577003479004,0.7996857762336731,0.9992154836654663,1],"min":[-0.9992153644561768,-0.8219175338745117,-0.9982536435127258,-1],"type":"VEC4"},{"bufferView":1,"byteOffset":7000,"componentType":5126,"count":900,"max":[1,0],"min":[0,-1],"type":"VEC2"},{"bufferView":0,"byteOffset":7344,"componentType":5125,"count":2400,"max":[899],"min":[0],"type":"SCALAR"}],"asset":{"extras":{"author":"ar.jethin (https://sketchfab.com/ar.jethin)","license":"CC-BY-4.0 (http://creativecommons.org/licenses/by/4.0/)","source":"https://sketchfab.com/3d-models/coconut-tree-low-poly-8c5d6b661b2f4c37834d87cd187eb907","title":"Coconut Tree Low poly"},"generator":"Sketchfab-9.52.0","version":"2.0"},"bufferViews":[{"buffer":0,"byteLength":16944,"byteOffset":0,"name":"floatBufferViews","target":34963},{"buffer":0,"byteLength":14200,"byteOffset":16944,"byteStride":8,"name":"floatBufferViews","target":34962},{"buffer":0,"byteLength":42600,"byteOffset":31144,"byteStride":12,"name":"floatBufferViews","target":34962},{"buffer":0,"byteLength":28400,"byteOffset":73744,"byteStride":16,"name":"floatBufferViews","target":34962}],"buffers":[{"byteLength":102144,"uri":"data:application/octet-stream;base64,"}],"images":[{"uri":"data:application/octet-stream;base64,"},{"uri":"data:application/octet-stream;base64,"},{"uri":"data:application/octet-stream;base64,"},{"uri":"data:application/octet-stream;base64,"}],"materials":[{"doubleSided":true,"emissiveFactor":[0,0,0],"name":"palm02","normalTexture":{"index":1,"scale":1,"texCoord":0},"pbrMetallicRoughness":{"baseColorFactor":[1,1,1,1],"baseColorTexture":{"index":0,"texCoord":0},"metallicFactor":0,"roughnessFactor":0.9678890854811545}},{"alphaCutoff":0.4942040749320541,"alphaMode":"MASK","doubleSided":true,"emissiveFactor":[0,0,0],"name":"date_palm_leaf","normalTexture":{"index":3,"scale":1,"texCoord":0},"pbrMetallicRoughness":{"baseColorFactor":[1,1,1,1],"baseColorTexture":{"index":2,"texCoord":0},"metallicFactor":0,"roughnessFactor":0.5002842480953857}}],"meshes":[{"name":"Tree_0_palm02_0","primitives":[{"attributes":{"NORMAL":1,"POSITION":0,"TANGENT":2,"TEXCOORD_0":3},"indices":4,"material":0,"mode":4}]},{"name":"Tree_1_date palm leaf_0","primitives":[{"attributes":{"NORMAL":6,"POSITION":5,"TANGENT":7,"TEXCOORD_0":8},"indices":9,"material":1,"mode":4}]}],"nodes":[{"children":[1],"name":"RootNode (gltf orientation matrix)","rotation":[-0.7071067811865475,0,0,0.7071067811865476]},{"children":[2],"name":"RootNode (model correction matrix)"},{"children":[3],"matrix":[1,0,0,0,0,0,1,0,0,-1,0,0,0,0,0,1],"name":"8fa3f4869d984f63abee7a6f494f2c92.fbx"},{"children":[4],"name":"RootNode"},{"children":[5,6],"name":"Tree_0"},{"mesh":0,"name":"Tree_0_palm02_0"},{"children":[7],"name":"Tree_1"},{"mesh":1,"name":"Tree_1_date palm leaf_0"}],"samplers":[{"magFilter":9729,"minFilter":9987,"wrapS":10497,"wrapT":10497}],"scene":0,"scenes":[{"name":"OSG_Scene","nodes":[0]}],"textures":[{"sampler":0,"source":0},{"sampler":0,"source":1},{"sampler":0,"source":2},{"sampler":0,"source":3}]}